<svg version="1.1" id="Layer_1" xmlns="http://www.w3.org/2000/svg" xmlns:xlink="http://www.w3.org/1999/xlink" x="0px" y="0px" viewBox="0 0 246.3005 256.9064" enable-background="new 0 0 246.3005 256.9064" xml:space="preserve">
<g>
<polygon points="117.8739,167.1167 125.2074,167.1167 125.2074,175.95 130.6239,175.95 130.6239,256.2448 137.1239,256.2448 
		137.1239,244.0747 227.0505,244.0747 227.0505,256.2448 233.5505,256.2448 233.5505,175.95 238.9675,175.95 238.9675,167.1167 
		246.3005,167.1167 246.3005,162.1167 117.8739,162.1167 	" id="id_101" style="fill: rgb(255, 255, 255);"></polygon>
<polygon points="173.8172,151.8301 180.3844,115.5208 195.8526,154.3947 164.0509,154.3947 164.0509,158.3947 201.7491,158.3947 
		181.7297,108.0824 190.0133,62.283 183.617,61.1262 167.421,150.6733 	" id="id_102" style="fill: rgb(255, 255, 255);"></polygon>
<path d="M140.9373,158.3947h16.3636v-4h-13.3575C143.2817,155.964,142.2404,157.3341,140.9373,158.3947z" id="id_103" style="fill: rgb(255, 218, 0);"></path>
<path d="M82.5479,68.3816c4.0564,0.9274,7.0859,4.5507,7.0859,8.8882c0,3.3171-1.7758,6.212-4.4227,7.8094
		c2.3186,3.6043,5.9025,7.8803,10.8359,10.2408c6.3925-3.9686,10.6508-11.0485,10.6508-19.1263
		c0-10.7582-7.5511-19.7469-17.642-21.9683C83.987,57.6835,82.8173,65.0311,82.5479,68.3816z" id="id_104" style="fill: rgb(255, 218, 0);"></path>
<path d="M84.1978,98.6936c3.0491,0,5.955-0.6094,8.6066-1.7082c-4.7991-2.8726-8.2335-7.1941-10.4595-10.7756
		c-0.5931,0.1212-1.2072,0.1849-1.8361,0.1849c-5.0396,0-9.125-4.0854-9.125-9.125c0-3.9891,2.564-7.3716,6.1307-8.612
		c0.1786-2.9894,1.0233-9.7492,4.9089-14.888c-11.5955,0.9057-20.7256,10.5949-20.7256,22.4238
		C61.6978,88.6203,71.7721,98.6936,84.1978,98.6936z" id="id_105" style="fill: rgb(255, 218, 0);"></path>
<path d="M68.1759,100.4247c-8.5371-2.129-20.9121,2.5078-25.9473,17.1503c-6.8047,20.1739-8.2676,33.3047-5.6816,55.5196
		c2.1353,10.9883,7.9531,15.2449,14.3451,16.8046c1.0392,0.3353,2.1394,0.5277,3.2776,0.5784
		c1.9244,0.2256,3.8531,0.2774,5.7054,0.2537c1.676-0.0211,3.1802-0.0722,4.5176-0.2253h27.5498l4.3984,54.8979
		c0.5244,6.5425,5.9951,11.5029,12.4463,11.5024c0.335,0,0.6729-0.0132,1.0117-0.0405c6.8818-0.5513,12.0137-6.5767,11.4619-13.458
		l-5.3193-66.3999c-0.5205-6.4956-5.9434-11.502-12.46-11.502H71.7044c0.0386-6.4717,0.774-13.09,1.7744-19.444l-18.47-20.4496
		c-1.8438-2.0415-2.7832-4.6792-2.6426-7.4272c0.1396-2.7476,1.3408-5.2764,3.3818-7.1201
		c1.8975-1.7129,4.3477-2.6563,6.9023-2.6563c2.9102,0,5.6963,1.2378,7.6455,3.396l8.054,8.9172
		C79.4799,111.7126,75.6737,102.2932,68.1759,100.4247z" id="id_106" style="fill: rgb(255, 218, 0);"></path>
<path d="M1.6222,141.4381c-1.293,0.4854-1.9473,1.9268-1.4619,3.2192l20.8574,55.5464c0.0577,0.1536,0.1329,0.2946,0.2157,0.4293
		c1.9591,4.2885,12.3132,7.7233,25.6595,8.603v1.77h4.2498v21.0532l-29.25,9v3.6838c-1.874,0.9243-3.1664,2.8485-3.1664,5.0795
		c0,3.1296,2.537,5.6666,5.6667,5.6666c3.1296,0,5.6666-2.537,5.6666-5.6666c0-2.2264-1.2872-4.1475-3.155-5.074l24.2382-7.4579
		v7.4525c-1.874,0.9243-3.1664,2.8485-3.1664,5.0795c0,3.1296,2.537,5.6666,5.6667,5.6666c3.1296,0,5.6666-2.537,5.6666-5.6666
		c0-2.2311-1.2926-4.1555-3.1669-5.0797v-7.4522l24.2385,7.458c-1.8678,0.9266-3.1549,2.8475-3.1549,5.0739
		c0,3.1296,2.537,5.6666,5.6667,5.6666c3.1296,0,5.6666-2.537,5.6666-5.6666c0-2.2311-1.2926-4.1555-3.1669-5.0797v-3.6835l-29.25-9
		V211.006h4.2502v-1.77c14.8483-0.9787,26-5.1194,26-10.0803c0-4.8072-46.7698-5.5519-61.2661-2.2346L13.916,167.0654
		c4.7802,7.4581,9.7063,11.687,13.0237,10.4413c5.3257-1.9998-17.6995-63.3193-23.0251-61.3196
		c-4.3408,1.6299-4.5862,12.1286-1.0861,25.1245C2.4329,141.2586,2.0214,141.2881,1.6222,141.4381z" id="id_107" style="fill: rgb(255, 255, 255);"></path>
<path d="M57.29,112.7715c-3.2783,2.9614-3.5361,8.0205-0.5742,11.2993l28.6289,31.6973c1.5166,1.6792,3.6738,2.6377,5.9365,2.6377
		h43.167c4.418,0,8-3.5815,8-8s-3.582-8-8-8H94.8359l-26.2471-29.0596C65.6289,110.0684,60.5693,109.8105,57.29,112.7715z" id="id_108" style="fill: rgb(255, 218, 0);"></path>
<ellipse transform="matrix(0.7071 -0.7071 0.7071 0.7071 -31.0575 79.5601)" cx="80.5088" cy="77.2698" rx="5.5764" ry="5.5764" id="id_109" style="fill: rgb(255, 255, 255); stroke: rgb(255, 218, 0);"></ellipse>
<path d="M97.3838,98.0823c0,0.3853,0.1169,0.7434,0.3129,1.046c0.3459,0.5342,0.9443,0.8915,1.6246,0.8915h4.25
		c1.0656,0,1.9375-0.8718,1.9375-1.9375c0-1.0656-0.8719-1.9375-1.9375-1.9375h-4.25c-0.289,0-0.5612,0.0685-0.8081,0.1833
		C97.8495,96.6364,97.3838,97.3057,97.3838,98.0823z" id="id_110" style="fill: rgb(255, 255, 255);"></path>
<path d="M141.1161,66.3333c7.533,0,14.4763-2.5154,20.0446-6.7466l10.9346,10.0383l-7.0327-13.5243
		c5.707-5.9573,9.2202-14.033,9.2202-22.9341C174.2828,14.8492,159.4335,0,141.1161,0s-33.1667,14.8492-33.1667,33.1666
		S122.7987,66.3333,141.1161,66.3333z M157.4078,29.5833c1.979,0,3.5833,1.6043,3.5833,3.5833c0,1.9791-1.6042,3.5834-3.5833,3.5834
		s-3.5834-1.6043-3.5834-3.5834C153.8244,31.1876,155.4288,29.5833,157.4078,29.5833z M141.1161,29.5833
		c1.979,0,3.5833,1.6043,3.5833,3.5833c0,1.9791-1.6043,3.5834-3.5833,3.5834s-3.5833-1.6043-3.5833-3.5834
		C137.5328,31.1876,139.1371,29.5833,141.1161,29.5833z M124.8244,29.5833c1.979,0,3.5834,1.6043,3.5834,3.5833
		c0,1.9791-1.6044,3.5834-3.5834,3.5834s-3.5833-1.6043-3.5833-3.5834C121.2411,31.1876,122.8454,29.5833,124.8244,29.5833z" id="id_111"></path>
<path d="M36.3947,57.316c4.4541,0,8.5474-1.5017,11.8403-4.0029l6.4805,5.9495l-4.1636-8.0077
		c3.3735-3.5228,5.4575-8.2906,5.4575-13.5535c0-10.8329-8.7817-19.6146-19.6147-19.6146c-10.8325,0-19.6143,8.7817-19.6143,19.6146
		S25.5622,57.316,36.3947,57.316z M46.0297,35.5822c1.1703,0,2.1191,0.9487,2.1191,2.1191c0,1.1703-0.9488,2.1191-2.1191,2.1191
		c-1.1704,0-2.1192-0.9488-2.1192-2.1191C43.9105,36.5309,44.8593,35.5822,46.0297,35.5822z M36.3949,35.5822
		c1.1703,0,2.1191,0.9487,2.1191,2.1191c0,1.1703-0.9488,2.1191-2.1191,2.1191c-1.1704,0-2.1191-0.9488-2.1191-2.1191
		C34.2758,36.5309,35.2245,35.5822,36.3949,35.5822z M26.7601,35.5822c1.1704,0,2.1192,0.9487,2.1192,2.1191
		c0,1.1703-0.9488,2.1191-2.1192,2.1191c-1.1703,0-2.1191-0.9488-2.1191-2.1191C24.641,36.5309,25.5897,35.5822,26.7601,35.5822z" id="id_112"></path>
</g>
</svg>