<svg xmlns="http://www.w3.org/2000/svg" xml:space="preserve" width="1.70666in" height="1.70666in" version="1.1" style="shape-rendering:geometricPrecision; text-rendering:geometricPrecision; image-rendering:optimizeQuality; fill-rule:evenodd; clip-rule:evenodd" viewBox="0 0 1706.66 1706.66" xmlns:xlink="http://www.w3.org/1999/xlink" xmlns:xodm="http://www.corel.com/coreldraw/odm/2003">
<defs>
<style type="text/css">
   
    .fil0 {fill:url(#id0)}
   
  </style>
<linearGradient id="id0" gradientUnits="userSpaceOnUse" x1="174.72" y1="853.33" x2="1531.94" y2="853.33">
<stop offset="0" style="stop-opacity: 1; stop-color: rgb(255, 218, 0);" id="id_102"></stop>
<stop offset="1" style="stop-opacity: 1; stop-color: rgb(109, 96, 19);" id="id_103"></stop>
</linearGradient>
</defs>
<g id="Layer_x0020_1">
<metadata id="CorelCorpID_0Corel-Layer"></metadata>
<path class="fil0" d="M1207.76 1706.22l-918.43 0c-63.21,0 -114.63,-51.42 -114.63,-114.62l0 -1289.34c0,-63.21 51.42,-114.63 114.63,-114.63l143.28 0 0 91.99c0,47.28 38.41,85.7 85.69,85.7l460.45 0c47.27,0 85.7,-38.43 85.7,-85.7l0 -91.99 143.28 0c63.21,0 114.62,51.42 114.62,114.63l0 528.11 -103.63 0c-40.01,0 -73.88,26.62 -84.83,63.1l-40.65 0c-29.43,0 -53.33,23.9 -53.33,53.33 0,29.68 -6.52,66.38 18.32,88.85 9.21,8.33 20.74,12.46 32.99,12.86 9.16,2.82 30.8,18.38 38.95,27.52l0 5.98 -36.93 0c-29.43,0 -53.33,23.9 -53.33,53.33 0,29.68 -6.52,66.38 18.32,88.85 9.21,8.33 20.74,12.46 32.99,12.87 9.16,2.81 30.8,18.37 38.95,27.51l0 5.98 -36.93 0c-29.43,0 -53.33,23.9 -53.33,53.33 0,29.68 -6.52,66.4 18.33,88.86 9.22,8.33 20.74,12.45 32.98,12.86 9.16,2.82 30.8,18.37 38.95,27.52l0 20.44c0,48.85 39.7,88.55 88.55,88.55l103.63 0 0 29.5c0.03,63.2 -51.4,114.62 -114.59,114.62zm233.49 -402.46c102.43,-1.1 90.24,-8.44 90.24,68.52 0,11.04 -8.97,20 -20,20 -18.86,0 -69.14,38.16 -70.24,53.23l0 28.05c-0.02,30.43 -24.78,55.2 -55.22,55.2l-167.3 0c-30.44,0 -55.22,-24.76 -55.22,-55.22l0 -27.89c-0.86,-15.01 -51.32,-53.36 -70.26,-53.36 -26.93,0 -20,-36.81 -20,-68.42 0,-11.04 8.97,-20 20,-20l70.26 0 0 -46.74c-0.83,-15 -51.32,-53.37 -70.26,-53.37 -26.93,0 -20,-36.81 -20,-68.41 0,-11.04 8.97,-20 20,-20l70.26 0 0 -46.75c-0.81,-14.99 -51.32,-53.39 -70.26,-53.39 -26.93,0 -20,-36.81 -20,-68.41 0,-11.04 8.97,-20 20,-20l70.26 0c0,-37.01 20.37,-63.1 55.22,-63.1l167.29 0c34.72,0 55.22,26.01 55.22,62.99 102.43,-1.1 90.24,-8.44 90.24,68.52 0,11.04 -8.97,20 -20,20 -18.86,0 -69.14,38.16 -70.24,53.24l0 46.78c102.43,-1.1 90.24,-8.44 90.24,68.52 0,11.04 -8.97,20 -20,20 -18.86,0 -69.14,38.16 -70.24,53.23l0 46.78zm-138.88 -201.99c-109.37,0 -109.35,-166.19 0,-166.19 109.35,0 109.37,166.19 0,166.19zm0 -126.18c-56.72,0 -56.72,86.19 0,86.19 56.72,0 56.72,-86.19 0,-86.19zm0 303.74c-109.37,0 -109.35,-166.19 0,-166.19 109.35,0 109.37,166.19 0,166.19zm0 -126.19c-56.72,0 -56.72,86.19 0,86.19 56.72,0 56.72,-86.19 0,-86.19zm0 303.73c-109.37,0 -109.35,-166.19 0,-166.19 109.35,0 109.37,166.19 0,166.19zm0 -126.19c-56.72,0 -56.72,86.19 0,86.19 56.72,0 56.72,-86.19 0,-86.19zm-323.61 -998.68l-460.45 0c-28.88,0 -52.36,-23.48 -52.36,-52.37l0 -116.97c0,-28.87 23.48,-52.36 52.36,-52.36l101.04 0c22.58,-146.46 235.74,-146.48 258.36,0l101.05 0c28.88,0 52.37,23.49 52.37,52.36l0 116.97c0,28.87 -23.5,52.37 -52.37,52.37zm-230.22 -134.79c-82.1,0 -82.08,-124.73 0,-124.73 82.08,0 82.1,124.73 0,124.73zm0 -84.73c-29.44,0 -29.45,44.73 0,44.73 29.45,0 29.43,-44.73 0,-44.73zm356.31 449.37l-487.16 0c-26.33,0 -26.33,-40 0,-40l487.17 0c26.33,0 26.33,40 -0.02,40zm-716.29 51.67c-15.56,0 -45.19,-39.54 -63.92,-59.85 -17.85,-19.35 11.57,-46.46 29.42,-27.11l35.1 38.08 88.61 -88.6c18.63,-18.63 46.9,9.68 28.28,28.28l-103.33 103.33c-3.76,3.74 -8.84,5.86 -14.15,5.86zm702.96 253.17l-473.82 0c-26.32,0 -26.33,-40 0,-40l473.84 0c26.33,0 26.33,40 -0.02,40zm-702.96 51.67c-15.5,0 -45.3,-39.67 -63.92,-59.86 -17.85,-19.35 11.58,-46.47 29.42,-27.11l35.1 38.08 88.61 -88.59c18.63,-18.63 46.9,9.67 28.28,28.28l-103.33 103.35c-3.76,3.75 -8.84,5.86 -14.15,5.86zm505.31 253.19l-276.17 0c-26.33,0 -26.33,-40 0,-40l276.17 0c26.33,0 26.33,40 0,40zm-505.31 51.67c-15.49,0 -45.35,-39.72 -63.92,-59.86 -17.84,-19.37 11.59,-46.46 29.42,-27.1l35.1 38.07 88.61 -88.61c18.65,-18.65 46.89,9.7 28.28,28.3l-103.33 103.33c-3.76,3.75 -8.84,5.87 -14.15,5.87zm627.2 253.18l-398.06 0c-26.33,0 -26.33,-40 0,-40l398.08 0c26.33,0 26.32,40 -0.02,40zm-627.2 51.66c-15.49,0 -45.35,-39.72 -63.92,-59.86 -17.83,-19.36 11.58,-46.47 29.42,-27.09l35.1 38.07 88.61 -88.61c18.65,-18.64 46.89,9.7 28.28,28.3l-103.33 103.33c-3.76,3.76 -8.84,5.87 -14.15,5.87z" id="id_101"></path>
</g>
</svg>